# xmcd
#
# Track frame offsets: 
#        182
#        14585
#        27195
#        43900
#        61827
#
# Disc length: 1601 seconds
#
# Revision: 0
# Processed by: cddbd v1.5.2PL0 Copyright (c) Steve Scherf et al.
# Submitted via: ExactAudioCopy v0.95a4
#
DISCID=3b063f05
DTITLE=Pam Tillis - Don't Tell Me What To Do
DYEAR=1990
DGENRE=Country
TTITLE0=Don't Tell Me What To Do
TTITLE1=Put Yourself In My Place
TTITLE2=Blue Rose
TTITLE3=Maybe It Was Memphis
TTITLE4=A Rambling Interview With Harlan Howard
EXTD=
EXTT0=
EXTT1=
EXTT2=
EXTT3=
EXTT4=
PLAYORDER=
